PathFileType	4	(X/Y/Z)	./resultDataOpenSim/trcMotMarkerGrf/sub06/qtm-15-07.trc
DataRate	CameraRate	NumFrames	NumMarkers	Units	OrigDataRate	OrigDataStartFrame	OrigNumFrames
250.000000	250.000000	15	24	m	250.000000	1	530
Frame#	Time	L.Toe.Tip			R.Toe.Tip			L.Ankle.Lat			R.Ankle.Lat			L.Ankle.Med			R.Ankle.Med			L.Heel			R.Heel			L.Knee.Lat			R.Knee.Lat			L.Knee.Med			R.Knee.Med			L.Thigh.Upper			R.Thigh.Upper			L.ASIS			R.ASIS			V.Sacral			L.Acromium			R.Acromium			C7			L.Elbow			R.Elbow			L.Wrist.Lat			R.Wrist.Lat
		X1	Y1	Z1	X2	Y2	Z2	X3	Y3	Z3	X4	Y4	Z4	X5	Y5	Z5	X6	Y6	Z6	X7	Y7	Z7	X8	Y8	Z8	X9	Y9	Z9	X10	Y10	Z10	X11	Y11	Z11	X12	Y12	Z12	X13	Y13	Z13	X14	Y14	Z14	X15	Y15	Z15	X16	Y16	Z16	X17	Y17	Z17	X18	Y18	Z18	X19	Y19	Z19	X20	Y20	Z20	X21	Y21	Z21	X22	Y22	Z22	X23	Y23	Z23	X24	Y24	Z24

1	0	-1.5688763	0.031892947	-0.11166841	-1.0570969	0.083147721	0.10032209	-1.6875345	0.077204875	-0.1286328	-1.188626	0.07747666	0.097030195	-1.6796396	0.088642099	-0.043900699	-1.164422	0.10634104	0.016265928	NaN	NaN	NaN	-1.2241375	0.043095507	0.021169574	-1.5350996	0.41722209	-0.13905647	-1.2338064	0.46718886	0.11830116	-1.5498135	0.4218688	-0.019950298	-1.243932	0.44939762	-0.0090197245	-1.4419354	0.79431187	-0.20132389	-1.4263797	0.79140453	0.15121835	-1.3602257	0.83405707	-0.15872067	-1.3410888	0.84365999	0.087816143	-1.5259209	0.92049305	-0.015958435	-1.3501321	1.3206817	-0.21334502	-1.3668375	1.3062516	0.15015247	-1.4364756	1.3564978	-0.034689384	-1.3652034	0.99675082	-0.28749347	-1.5305079	1.037137	0.21156027	-1.1540476	0.86586027	-0.24854988	-1.4469782	0.80447294	0.24254083
2	0.004	-1.5683592	0.031976624	-0.11230582	-1.0392544	0.086892542	0.10087308	-1.6872667	0.077768158	-0.12885274	-1.170409	0.077528654	0.09796708	-1.6791361	0.089303676	-0.044197369	-1.1474058	0.10705903	0.016968924	NaN	NaN	NaN	-1.2054133	0.042213993	0.022030523	-1.5322506	0.41678209	-0.13932108	-1.2290413	0.46532557	0.11710007	-1.5467187	0.42145484	-0.020244101	-1.2373891	0.44736094	-0.0097430794	-1.4368018	0.79271898	-0.20134758	-1.4202436	0.78966784	0.15096584	-1.3542301	0.83255032	-0.15880403	-1.3342803	0.84210481	0.087746792	-1.5197648	0.91897157	-0.015635213	-1.3441979	1.3193404	-0.21308883	-1.3610672	1.3044001	0.15054896	-1.4306763	1.355037	-0.034377153	-1.3570048	0.99530534	-0.28751877	-1.5249908	1.0353508	0.21074971	-1.144862	0.86649125	-0.24741596	-1.4444485	0.80267019	0.24302486
3	0.008	-1.5680875	0.032021663	-0.11271077	-1.0216742	0.090853853	0.10132494	-1.6869451	0.07836143	-0.12909603	-1.1524344	0.077764313	0.098888054	-1.6787273	0.089992841	-0.044466624	-1.1306158	0.10792104	0.017694649	NaN	NaN	NaN	-1.1868923	0.041452816	0.022948546	-1.5293227	0.41633466	-0.13960034	-1.2231016	0.46365583	0.11622166	-1.5435869	0.42098541	-0.020529916	-1.230886	0.44529804	-0.010530696	-1.4316538	0.79112649	-0.20126816	-1.4135501	0.78806275	0.1508349	-1.3482794	0.8310546	-0.15894662	-1.3274492	0.84057238	0.087650094	-1.5135622	0.91749324	-0.015266177	-1.3382369	1.3180004	-0.21281226	-1.3552788	1.3025633	0.15098066	-1.4248736	1.3535603	-0.034100976	-1.3488072	0.99385846	-0.28750701	-1.5194664	1.0336011	0.20999337	-1.1356881	0.86709572	-0.24627533	-1.4418656	0.80088628	0.24350735
4	0.012	-1.5681245	0.032012992	-0.11282088	-1.0045467	0.095151212	0.10172078	-1.6866064	0.079023259	-0.12937226	-1.1348863	0.078263943	0.099766521	-1.6784138	0.090716275	-0.044707773	-1.1141562	0.10901441	0.018430636	NaN	NaN	NaN	-1.1686965	0.040880039	0.023949498	-1.5262583	0.41588067	-0.13990254	-1.2160035	0.46216475	0.11566577	-1.5403704	0.42043026	-0.020813463	-1.2244507	0.44319253	-0.01138617	-1.4264936	0.78957704	-0.2009831	-1.406327	0.78655141	0.15080759	-1.3423706	0.82955903	-0.15918153	-1.3205679	0.83905404	0.087509107	-1.5072828	0.91604927	-0.014830679	-1.332231	1.3166618	-0.21249949	-1.3494363	1.3007319	0.15145045	-1.419046	1.3520663	-0.033842039	-1.3405961	0.99240652	-0.28742313	-1.5138653	1.0318724	0.20928302	-1.1265415	0.86764547	-0.24512974	-1.4391835	0.79911738	0.24398892
5	0.016	-1.5683116	0.031968578	-0.11278186	-0.98798319	0.099783742	0.10214228	-1.6863374	0.079778401	-0.1296719	-1.1178853	0.079022767	0.1005704	-1.678125	0.091473604	-0.044936905	-1.0980737	0.11034135	0.01913415	NaN	NaN	NaN	-1.1508989	0.040523012	0.025019505	-1.5230401	0.41543313	-0.14022819	-1.2086644	0.46068652	0.11519957	-1.5370043	0.41980812	-0.02111588	-1.2181004	0.44105408	-0.012262471	-1.4213473	0.78814182	-0.2004671	-1.3988581	0.78502803	0.15080587	-1.3364811	0.82805699	-0.15951096	-1.313622	0.83753767	0.08732339	-1.5009308	0.91461202	-0.014324483	-1.3261895	1.3153243	-0.21214528	-1.3435192	1.2988922	0.15194358	-1.4131739	1.350571	-0.033537297	-1.3323703	0.99094518	-0.28724322	-1.5080923	1.0301087	0.20856418	-1.1174613	0.86812396	-0.24398811	-1.4363737	0.79734756	0.24447155
6	0.02	-1.5684633	0.031916336	-0.11276498	-0.97196255	0.10470976	0.10254333	-1.6861639	0.080623128	-0.12997025	-1.1014652	0.080008525	0.10127673	-1.6777681	0.092289356	-0.045180734	-1.082427	0.11184035	0.019760312	NaN	NaN	NaN	-1.1335063	0.040390437	0.026076837	-1.5196801	0.41500646	-0.14057062	-1.2017508	0.45911312	0.11466807	-1.5334409	0.41917085	-0.021451492	-1.2118225	0.43891256	-0.013119613	-1.4162001	0.78683116	-0.19983927	-1.3912418	0.78346056	0.1508017	-1.3305865	0.82656074	-0.1598905	-1.3066128	0.83602279	0.087098956	-1.4945228	0.91316345	-0.013753827	-1.3201268	1.3139893	-0.2117577	-1.3375388	1.2970513	0.15245372	-1.4072427	1.3490916	-0.033134258	-1.324139	0.98947769	-0.28696608	-1.5020808	1.0282501	0.20779578	-1.1084742	0.86853622	-0.24285673	-1.4334315	0.7955671	0.24495487
7	0.024	-1.5685259	0.031869682	-0.11281834	-0.95642495	0.10985992	0.10281115	-1.6860203	0.081533266	-0.13023903	-1.0856287	0.081171972	0.10187084	-1.6772153	0.093201253	-0.045486836	-1.0673011	0.11343791	0.020275813	NaN	NaN	NaN	-1.1165241	0.040463789	0.026971015	-1.5162023	0.4146031	-0.14091909	-1.1952619	0.45747158	0.11409866	-1.5296871	0.41855664	-0.021811686	-1.2055884	0.43680269	-0.013939006	-1.4109862	0.78557966	-0.19928058	-1.3835416	0.78186097	0.15079076	-1.3246669	0.82508519	-0.16023958	-1.2995607	0.83451211	0.086835462	-1.4880774	0.91169433	-0.013141691	-1.314047	1.312662	-0.21135559	-1.3315274	1.2952329	0.15298119	-1.401257	1.3476341	-0.032647612	-1.3159216	0.98802449	-0.2866209	-1.4958699	1.0262912	0.20700846	-1.0995812	0.86889925	-0.24173513	-1.4303852	0.79378268	0.24543491
8	0.028	-1.5685318	0.031829354	-0.11290947	-0.94144936	0.11505613	0.10294709	-1.6857903	0.08248228	-0.13046862	-1.0703958	0.082443584	0.10233318	-1.6763502	0.094221296	-0.045902889	-1.0527446	0.11509	0.02066449	NaN	NaN	NaN	-1.100063	0.040707893	0.027584804	-1.5126253	0.41421376	-0.14126717	-1.188912	0.45583797	0.11358821	-1.5257619	0.41796986	-0.022179624	-1.1993692	0.43474692	-0.014701613	-1.4056592	0.78432882	-0.1988681	-1.3758915	0.78021929	0.15075911	-1.3187192	0.82363268	-0.16051464	-1.2924803	0.83300649	0.086529568	-1.4816109	0.91020608	-0.012514957	-1.3079454	1.3113479	-0.21095606	-1.325501	1.2934476	0.15352386	-1.3952392	1.3461938	-0.032149062	-1.3077391	0.98660956	-0.28625141	-1.4896552	1.0243443	0.20633042	-1.0907733	0.86922639	-0.24061883	-1.4272662	0.79201295	0.24591069
9	0.032	-1.568516	0.031793996	-0.11300434	-0.92725271	0.12001296	0.10307567	-1.6853485	0.083457097	-0.13067773	-1.0558094	0.083740332	0.10263886	-1.6752252	0.095326476	-0.046414147	-1.0387601	0.11677392	0.020927324	NaN	NaN	NaN	-1.0843133	0.041096665	0.027911276	-1.5089511	0.41383086	-0.1416166	-1.1824898	0.45425694	0.11320113	-1.5216751	0.41740855	-0.022544799	-1.1931352	0.43274784	-0.015386958	-1.4002234	0.78306892	-0.19855079	-1.3683305	0.77852552	0.1507153	-1.3127793	0.8221857	-0.16076966	-1.2853645	0.83150476	0.086186077	-1.4751305	0.90871369	-0.011881826	-1.301816	1.3100551	-0.21056058	-1.3194481	1.2916911	0.15408104	-1.3892024	1.34477	-0.031682373	-1.2995998	0.98524301	-0.28588146	-1.4837313	1.0226069	0.20594163	-1.0820467	0.86951964	-0.23950672	-1.4240668	0.7902752	0.24638383
10	0.036	-1.5684915	0.0317633	-0.11309122	-0.91397867	0.12448292	0.10329196	-1.6846444	0.084464691	-0.13089546	-1.0419134	0.084980414	0.10277476	-1.6741987	0.096454041	-0.046889668	-1.0253684	0.1184509	0.021068642	NaN	NaN	NaN	-1.0693918	0.041602539	0.027989412	-1.5051758	0.41345861	-0.14196918	-1.175922	0.45273254	0.11295248	-1.5174713	0.41688113	-0.022894624	-1.1868543	0.43079451	-0.015990448	-1.3946999	0.78181095	-0.1982537	-1.3607697	0.77680906	0.15070449	-1.3069031	0.82071241	-0.16112147	-1.2782029	0.83000423	0.085816346	-1.4686314	0.90724045	-0.011226775	-1.2956548	1.3087956	-0.21015294	-1.3133548	1.2899665	0.15465849	-1.3831347	1.343375	-0.031224581	-1.2914998	0.98392314	-0.28549791	-1.4782747	1.0211984	0.20593804	-1.073402	0.86977163	-0.23840283	-1.4207346	0.78857633	0.24685271
11	0.04	-1.5684561	0.031735178	-0.11317167	-0.90159244	0.12834587	0.10358485	-1.6837472	0.085527104	-0.13114896	-1.0287427	0.086098339	0.10274696	-1.6739486	0.097476545	-0.047091252	-1.0126337	0.12005304	0.021086377	NaN	NaN	NaN	-1.0553057	0.042177142	0.027841709	-1.501301	0.41310472	-0.14231654	-1.1691907	0.45126412	0.11283776	-1.5132347	0.41638131	-0.023207114	-1.1804958	0.42887557	-0.016526649	-1.3891036	0.78056126	-0.19794135	-1.3530986	0.77512686	0.1507755	-1.301082	0.81920854	-0.161614	-1.2710111	0.82850173	0.085427119	-1.4620967	0.90581461	-0.010523213	-1.2894586	1.3075774	-0.20971006	-1.3072248	1.2882908	0.15526127	-1.377016	1.34202	-0.030738798	-1.2834331	0.98264648	-0.28506943	-1.4731044	1.0200127	0.20618999	-1.0648427	0.86997447	-0.23730881	-1.4171991	0.78692376	0.2473175
12	0.044	-1.5684048	0.031705605	-0.11324821	-0.88998179	0.13156654	0.10387588	-1.6827639	0.086667307	-0.13145948	-1.0163237	0.087050345	0.10257156	-1.6750684	0.098276301	-0.046829957	-1.0006188	0.12150481	0.020977855	NaN	NaN	NaN	-1.0420525	0.042753481	0.027503817	-1.4973176	0.41276354	-0.14264451	-1.1622772	0.44987833	0.11285176	-1.5089716	0.41588028	-0.023472801	-1.1740357	0.42699146	-0.017010989	-1.3834429	0.77932417	-0.19761681	-1.3452811	0.77351604	0.15094031	-1.295206	0.8177251	-0.16213972	-1.2638227	0.82699828	0.085016885	-1.4555024	0.90446253	-0.0097540274	-1.2832264	1.3064018	-0.20921855	-1.3010645	1.2866762	0.15588747	-1.3708327	1.3407019	-0.03021143	-1.2754017	0.98141301	-0.28458204	-1.467748	1.0187874	0.20639341	-1.0563723	0.87012913	-0.23621753	-1.4134259	0.78533381	0.24778508
13	0.048	-1.5683363	0.031673263	-0.1133206	-0.87905766	0.13413639	0.10405926	-1.6817448	0.087893743	-0.13183193	-1.0046691	0.087808107	0.1022665	-1.6771887	0.098946178	-0.046249886	-0.98935217	0.12273807	0.020746072	NaN	NaN	NaN	-1.0296729	0.043254574	0.027044657	-1.4931894	0.41241648	-0.14294831	-1.1551729	0.44861917	0.11297571	-1.5044923	0.41536223	-0.023720682	-1.1674601	0.4251587	-0.017440344	-1.3777185	0.77810527	-0.197298	-1.3373781	0.77197655	0.15116887	-1.2891632	0.81632402	-0.16256686	-1.2566402	0.82550595	0.084584567	-1.4488326	0.9031921	-0.0089256664	-1.2769589	1.3052693	-0.20868339	-1.2948623	1.2851202	0.15653285	-1.364576	1.3394168	-0.02963312	-1.267415	0.98022696	-0.28404667	-1.4618783	1.0173674	0.20635187	-1.047992	0.8702441	-0.23511969	-1.4094826	0.78380958	0.24826347
14	0.052	-1.5682526	0.031640463	-0.11338674	-0.86876374	0.13604615	0.10403601	-1.6806771	0.089202052	-0.1322579	-0.99377528	0.088349257	0.10185507	-1.6788657	0.099804594	-0.045840789	-0.97884337	0.12368616	0.020400328	NaN	NaN	NaN	-1.0182277	0.043608458	0.026537448	-1.4888653	0.41204663	-0.14323362	-1.1478779	0.44751938	0.11316507	-1.4995673	0.41483425	-0.023992957	-1.1607602	0.42340851	-0.017800133	-1.3719222	0.77690809	-0.19699334	-1.3294395	0.77051369	0.15143152	-1.2829462	0.81502367	-0.16288654	-1.2494224	0.8240462	0.084135492	-1.4420854	0.90199635	-0.0080572066	-1.2706521	1.3041824	-0.20811886	-1.2885954	1.2836144	0.15719601	-1.3582434	1.3381765	-0.028991702	-1.2594833	0.979096	-0.28347651	-1.4555895	1.0158444	0.20614541	-1.0397051	0.87032539	-0.23401674	-1.4055097	0.78232706	0.24875545
15	0.056	-1.5681577	0.031609731	-0.1134454	-0.8590595	0.13728105	0.10374376	-1.6795186	0.090590261	-0.13272947	-0.98362785	0.088651986	0.10137694	-1.6789288	0.10109126	-0.045990244	-0.96910305	0.12428274	0.019954672	NaN	NaN	NaN	-1.0077695	0.043760533	0.026027603	-1.4842933	0.41164198	-0.14350185	-1.1403832	0.446593	0.11335762	-1.4942304	0.4142858	-0.024289288	-1.1539244	0.42178864	-0.018091851	-1.3660415	0.77573546	-0.19669203	-1.3214002	0.76917774	0.15172923	-1.2766332	0.81380392	-0.16317153	-1.2421323	0.82263751	0.083674199	-1.4352673	0.90087537	-0.0071636795	-1.2642963	1.3031447	-0.20753447	-1.2822533	1.2821549	0.15787681	-1.3518448	1.3369966	-0.028292809	-1.2516124	0.97802925	-0.28287447	-1.4491625	1.0143971	0.20596409	-1.031521	0.87037338	-0.23292232	-1.401561	0.78086526	0.24925454
